<?xml version="1.0" encoding="UTF-8"?>
<svg id="Layer_2" data-name="Layer 2" xmlns="http://www.w3.org/2000/svg" xmlns:xlink="http://www.w3.org/1999/xlink" viewBox="0 0 32 32.13">
  <defs>
    <style>
      .cls-1 {
        fill: url(#linear-gradient-2);
      }

      .cls-2, .cls-3 {
        fill: #f5f8fa;
      }

      .cls-4 {
        fill: none;
      }

      .cls-5 {
        fill: #212121;
      }

      .cls-3 {
        filter: url(#drop-shadow-1);
      }

      .cls-6 {
        fill: url(#linear-gradient);
      }
    </style>
    <linearGradient id="linear-gradient" x1="21.21" y1="23.4" x2="20.36" y2="23.68" gradientUnits="userSpaceOnUse">
      <stop offset=".7" stop-color="#f0f3f5"/>
      <stop offset="1" stop-color="#212121"/>
    </linearGradient>
    <linearGradient id="linear-gradient-2" x1="11.43" y1="8.65" x2="11.5" y2="8.62" gradientUnits="userSpaceOnUse">
      <stop offset="0" stop-color="#f0f3f5"/>
      <stop offset="1" stop-color="#000"/>
    </linearGradient>
    <filter id="drop-shadow-1" x="5.05" y="0" width="24" height="32" filterUnits="userSpaceOnUse">
      <feOffset dx="1" dy="0"/>
      <feGaussianBlur result="blur" stdDeviation="2"/>
      <feFlood flood-color="#212121" flood-opacity="1"/>
      <feComposite in2="blur" operator="in"/>
      <feComposite in="SourceGraphic"/>
    </filter>
  </defs>
  <g id="Color">
    <g>
      <circle class="cls-5" cx="16" cy="16.13" r="16"/>
      <g>
        <path d="M19.21,19.53l.61,1.93c-.2-.64-.4-1.28-.61-1.93Z"/>
        <polygon class="cls-6" points="21.26 25.77 21.2 25.77 19.83 21.48 19.89 21.48 21.26 25.77"/>
        <polygon class="cls-1" points="12.17 10.79 12.11 10.79 10.74 6.49 10.8 6.49 12.17 10.79"/>
        <path class="cls-2" d="M23.78,6.49v19.27h-2.52l-1.37-4.29c-.15-2.6-.21-5.24-.21-7.91v-7.07h4.1Z"/>
        <path class="cls-2" d="M12.32,18.7v7.07h-4.1V6.49h2.52l1.37,4.29c.15,2.6.21,5.24.21,7.91Z"/>
        <path class="cls-3" d="M21.2,25.77h-3.6l-2.82-7.49c-.95-2.43-1.84-4.99-2.61-7.49l-1.37-4.29h3.6l2.85,7.49c.68,1.8,1.35,3.68,1.96,5.54l.61,1.93v.02s1.38,4.29,1.38,4.29Z"/>
      </g>
      <line class="cls-4" x1="12.64" y1="12.26" x2="12.17" y2="10.79"/>
    </g>
  </g>
</svg>