<?xml version="1.0" encoding="UTF-8"?>
<svg id="uuid-dbf0bd29-2dfe-43ce-8913-71080cc94989" data-name="Layer 2" xmlns="http://www.w3.org/2000/svg" viewBox="0 0 32 32">
  <defs>
    <style>
      .uuid-8d40d80f-3b8a-451c-accd-cf88e1134af3 {
        fill:var(--color--text);
        fill-rule: evenodd;
      }
    </style>
  </defs>
  <g id="uuid-ab26e04c-2523-45d4-b64b-abf5ea12510f" data-name="Layer 1">
    <path class="uuid-8d40d80f-3b8a-451c-accd-cf88e1134af3" d="M28.45,0H3.56C1.59,0,0,1.6,0,3.56v24.89c0,1.96,1.59,3.55,3.56,3.55h24.89c1.96,0,3.55-1.59,3.55-3.55V3.56c0-1.96-1.59-3.56-3.55-3.56ZM9.68,27.56h-4.77v-15.41h4.77v15.41ZM7.27,10.14c-1.56,0-2.82-1.28-2.82-2.85s1.26-2.84,2.82-2.84,2.82,1.27,2.82,2.84-1.26,2.85-2.82,2.85ZM27.56,27.56h-4.75v-8.09c0-2.22-.84-3.45-2.6-3.45-1.91,0-2.91,1.28-2.91,3.45v8.09h-4.57v-15.41h4.57v2.08s1.38-2.55,4.65-2.55,5.61,2,5.61,6.12v9.76Z"/>
  </g>
</svg>