<?xml version="1.0" encoding="UTF-8"?>
<svg id="Layer_2" data-name="Layer 2" xmlns="http://www.w3.org/2000/svg" viewBox="0 0 32 32">
  <defs>
    <style>
      .cls-1 {
        fill: #f5f8fa;
      }

      .cls-2 {
        fill: #212121;
      }
    </style>
  </defs>
  <g id="Wordmark">
    <rect class="cls-1" width="32" height="32"/>
    <g>
      <path class="cls-2" d="M28.92,0v32h-3.24l-.91-.87h0l-2.37-7.41c-.21-3.95-.29-7.94-.29-11.98V0h6.81Z"/>
      <path class="cls-2" d="M9.88,20.26v11.74H3.08V0h3.09l1.03,1.01h0l2.41,7.56c.19,3.85.27,7.75.27,11.69Z"/>
      <path class="cls-2" d="M24.37,31.18l-.15.82h-5.56l-4.69-12.44c-1.58-4.03-3.06-8.29-4.34-12.44L7.66.94h0l.17-.94h5.5l4.74,12.44c1.13,2.99,2.24,6.1,3.26,9.21l1.02,3.2v.04s2.02,6.31,2.02,6.31h0Z"/>
    </g>
  </g>
</svg>