<?xml version="1.0" encoding="UTF-8"?>
<svg id="uuid-7df3efb3-d985-401b-9720-f56fcd4fedfd" data-name="Layer 2" xmlns="http://www.w3.org/2000/svg" viewBox="0 0 31.88 31.35">
  <defs>
    <style>
      .uuid-474c0c6c-dc62-4cc0-9b38-4eafb231badc {
        fill: var(--color--text);
        fill-rule: evenodd;
      }
    </style>
  </defs>
  <g id="uuid-20182ecd-0e33-485a-acfb-2e9dda97ed5e" data-name="Layer 1">
    <path class="uuid-474c0c6c-dc62-4cc0-9b38-4eafb231badc" d="M15.95,0C7.13,0,0,7.18,0,16.07c0,7.1,4.57,13.12,10.91,15.25.79.16,1.08-.35,1.08-.77,0-.37-.03-1.65-.03-2.98-4.44.96-5.36-1.92-5.36-1.92-.71-1.86-1.77-2.34-1.77-2.34-1.45-.98.11-.98.11-.98,1.61.11,2.46,1.65,2.46,1.65,1.43,2.45,3.72,1.76,4.65,1.33.13-1.04.55-1.76,1-2.16-3.54-.37-7.26-1.76-7.26-7.93,0-1.76.63-3.19,1.64-4.31-.16-.4-.71-2.05.16-4.26,0,0,1.35-.43,4.38,1.65,1.3-.35,2.64-.53,3.99-.53,1.35,0,2.72.19,3.99.53,3.04-2.08,4.38-1.65,4.38-1.65.87,2.21.32,3.86.16,4.26,1.03,1.12,1.64,2.55,1.64,4.31,0,6.17-3.72,7.53-7.29,7.93.58.51,1.08,1.46,1.08,2.98,0,2.16-.03,3.88-.03,4.42,0,.43.29.93,1.08.77,6.34-2.13,10.91-8.14,10.91-15.25.03-8.89-7.13-16.07-15.93-16.07Z"/>
  </g>
</svg>