<?xml version="1.0" encoding="UTF-8"?>
<svg id="uuid-9efaaefe-0a97-4f98-9fde-0faad03923ba" data-name="Layer 2" xmlns="http://www.w3.org/2000/svg" viewBox="0 0 32 32">
  <defs>
    <style>
      .uuid-1b61cb97-3e39-4f29-9bc0-4531fafc1445 {
        fill:var(--color--text);
      }
    </style>
  </defs>
  <g id="uuid-663fadca-8bf3-40b3-8f26-f8a1f1a48738" data-name="Layer 1">
    <g>
      <path class="uuid-1b61cb97-3e39-4f29-9bc0-4531fafc1445" d="M19.97,16c0,2.19-1.77,3.96-3.96,3.96s-3.97-1.77-3.97-3.96,1.78-3.97,3.97-3.97,3.96,1.78,3.96,3.97Z"/>
      <path class="uuid-1b61cb97-3e39-4f29-9bc0-4531fafc1445" d="M25.69,11.19c-.05-1.16-.25-1.79-.41-2.2-.21-.56-.47-.96-.89-1.37-.42-.42-.81-.68-1.37-.89-.42-.16-1.05-.36-2.21-.41-1.25-.06-1.63-.07-4.8-.07h-1.07c-2.22,0-2.64.02-3.74.07-1.16.05-1.79.24-2.21.41-.56.21-.95.47-1.37.88-.41.42-.67.82-.89,1.37-.16.42-.36,1.05-.41,2.21-.06,1.25-.07,1.63-.07,4.8s.01,3.55.07,4.81c.05,1.16.25,1.79.41,2.2.22.56.48.95.89,1.37.42.42.81.67,1.37.89.42.16,1.05.36,2.21.41,1.25.06,1.63.07,4.81.07s3.55-.01,4.8-.07c1.16-.05,1.79-.25,2.21-.41.56-.22.95-.47,1.37-.89.42-.42.68-.81.89-1.37.16-.41.36-1.04.41-2.2.06-1.26.07-1.63.07-4.8s-.01-3.55-.07-4.81ZM16.01,22.1c-3.38,0-6.11-2.73-6.11-6.1s2.73-6.11,6.11-6.11,6.11,2.74,6.11,6.11-2.74,6.1-6.11,6.1ZM22.36,11.08c-.79,0-1.43-.64-1.43-1.43s.64-1.42,1.43-1.42,1.43.63,1.43,1.42-.64,1.43-1.43,1.43Z"/>
      <path class="uuid-1b61cb97-3e39-4f29-9bc0-4531fafc1445" d="M31.97,6.94c-.1-1.29-.32-2.15-.77-3.07-.37-.74-.78-1.3-1.37-1.87-1.06-1.02-2.35-1.63-3.9-1.85-.74-.11-.89-.14-4.72-.15h-5.2C9.33,0,7.37.01,6.99.04c-1.37.11-2.22.33-3.15.79-.72.36-1.28.77-1.84,1.35C.99,3.23.37,4.53.15,6.07c-.11.75-.14.9-.15,4.72v5.2c0,6.68.01,8.63.04,9.01.11,1.34.32,2.17.76,3.09.85,1.76,2.47,3.08,4.37,3.57.66.17,1.39.27,2.33.31.39.02,4.43.03,8.47.03s8.08,0,8.47-.02c1.08-.06,1.71-.14,2.41-.32,1.91-.49,3.5-1.79,4.37-3.58.43-.89.65-1.76.75-3.03.02-.27.03-4.67.03-9.06s-.01-8.78-.03-9.05ZM27.83,20.9c-.06,1.26-.26,2.13-.55,2.88-.31.79-.71,1.45-1.37,2.11-.67.66-1.33,1.07-2.11,1.37-.76.3-1.62.5-2.89.56-1.27.05-1.67.07-4.9.07s-3.64-.02-4.91-.07c-1.27-.06-2.13-.26-2.89-.56-.78-.3-1.44-.71-2.1-1.37-.67-.66-1.07-1.32-1.38-2.11-.29-.75-.49-1.62-.55-2.88-.06-1.27-.07-1.67-.07-4.9s.01-3.64.07-4.9c.06-1.27.26-2.13.55-2.89.31-.78.71-1.45,1.38-2.11.66-.66,1.32-1.06,2.1-1.37.76-.29,1.62-.49,2.89-.55,1.27-.06,1.68-.07,4.91-.07s3.63.01,4.9.07c1.27.06,2.13.26,2.89.55.78.31,1.44.71,2.11,1.37.66.66,1.06,1.33,1.37,2.11.29.76.49,1.62.55,2.89.06,1.26.07,1.67.07,4.9s-.01,3.63-.07,4.9Z"/>
    </g>
  </g>
</svg>